<?xml version="1.0" encoding="utf-8"?>
<!-- Generator: Adobe Illustrator 19.1.0, SVG Export Plug-In . SVG Version: 6.00 Build 0)  -->
<!DOCTYPE svg PUBLIC "-//W3C//DTD SVG 1.1//EN" "http://www.w3.org/Graphics/SVG/1.1/DTD/svg11.dtd">
<svg version="1.1" id="Layer_1" xmlns="http://www.w3.org/2000/svg" xmlns:xlink="http://www.w3.org/1999/xlink" x="0px" y="0px"
	 viewBox="0 0 100 100" style="enable-background:new 0 0 100 100;" xml:space="preserve">
<style type="text/css">
	.st0{fill:#FFFFFF;}
	.st1{fill:#EF2E51;}
</style>
<rect class="st0" width="100" height="100"/>
<g>
	<path class="st1" d="M33.5526,59.7222C39.2544,57.4318,44.7368,56.2865,50,56.2865s10.7456,1.1452,16.4474,3.4357
		C72.1491,62.0127,75,65.0098,75,68.7134V75H25v-6.2866C25,65.0098,27.8509,62.0127,33.5526,59.7222z M58.7719,46.345
		C56.3353,48.7817,53.4113,50,50,50s-6.3353-1.2183-8.7719-3.655c-2.4366-2.4366-3.655-5.3606-3.655-8.7719
		c0-3.4113,1.2183-6.3597,3.655-8.845C43.6647,26.2427,46.5887,25,50,25s6.3353,1.2427,8.7719,3.7281
		c2.4366,2.4854,3.655,5.4337,3.655,8.845C62.4269,40.9844,61.2086,43.9084,58.7719,46.345z"/>
</g>
</svg>
