<?xml version="1.0" encoding="utf-8"?>
<!-- Generator: Adobe Illustrator 19.1.0, SVG Export Plug-In . SVG Version: 6.00 Build 0)  -->
<!DOCTYPE svg PUBLIC "-//W3C//DTD SVG 1.1//EN" "http://www.w3.org/Graphics/SVG/1.1/DTD/svg11.dtd">
<svg version="1.1" id="Layer_1" xmlns="http://www.w3.org/2000/svg" xmlns:xlink="http://www.w3.org/1999/xlink" x="0px" y="0px"
	 viewBox="0 0 34.3333 34.3333" style="enable-background:new 0 0 34.3333 34.3333;" xml:space="preserve">
<style type="text/css">
	.st0{fill:#FFFFFF;}
	.st1{fill:#4285F4;}
	.st2{fill:#34A853;}
	.st3{fill:#FBBC05;}
	.st4{fill:#EA4335;}
</style>
<g>
	<path class="st0" d="M1.7167,0h30.9c0.9481,0,1.7167,0.7686,1.7167,1.7167v30.9c0,0.9481-0.7686,1.7167-1.7167,1.7167h-30.9
		C0.7686,34.3333,0,33.5647,0,32.6167v-30.9C0,0.7686,0.7686,0,1.7167,0z"/>
	<path class="st1" d="M25.8067,17.3712c0-0.6382-0.0573-1.2518-0.1636-1.8409h-8.4764v3.4814h4.8436
		c-0.2086,1.125-0.8427,2.0782-1.7959,2.7164v2.2582h2.9086C24.8248,22.4194,25.8067,20.1121,25.8067,17.3712z"/>
	<path class="st2" d="M17.1667,26.1667c2.43,0,4.4673-0.8059,5.9564-2.1805l-2.9086-2.2582
		c-0.8059,0.54-1.8368,0.8591-3.0477,0.8591c-2.3441,0-4.3282-1.5832-5.0359-3.7105H9.1239v2.3318
		C10.6048,24.1498,13.6485,26.1667,17.1667,26.1667z"/>
	<path class="st3" d="M12.1307,18.8767c-0.18-0.54-0.2823-1.1168-0.2823-1.71s0.1023-1.17,0.2823-1.71v-2.3318H9.1239
		c-0.6095,1.215-0.9573,2.5895-0.9573,4.0418s0.3477,2.8268,0.9573,4.0418L12.1307,18.8767z"/>
	<path class="st4" d="M17.1667,11.7462c1.3214,0,2.5077,0.4541,3.4405,1.3459l2.5814-2.5814
		c-1.5586-1.4523-3.5959-2.3441-6.0218-2.3441c-3.5182,0-6.5618,2.0168-8.0427,4.9582l3.0068,2.3318
		C12.8385,13.3294,14.8226,11.7462,17.1667,11.7462z"/>
</g>
</svg>
