<?xml version="1.0" encoding="utf-8"?>
<!-- Generator: Adobe Illustrator 19.1.1, SVG Export Plug-In . SVG Version: 6.00 Build 0)  -->
<svg version="1.1" id="Layer_1" xmlns="http://www.w3.org/2000/svg" xmlns:xlink="http://www.w3.org/1999/xlink" x="0px" y="0px"
	 viewBox="0 0 103.9 148.5" style="enable-background:new 0 0 103.9 148.5;" xml:space="preserve">
<style type="text/css">
	.st0{fill:#FFFFFF;}
</style>
<path class="st0" d="M51.9,20.8c-8.3,0-15.4,3-21.4,9c-6,6-9,13.1-9,21.4c0,8.3,3,15.4,9,21.4c6,6,13.1,9,21.4,9
	c8.3,0,15.4-3,21.4-9c6-6,9-13.1,9-21.4c0-8.3-3-15.4-9-21.4C67.3,23.8,60.2,20.8,51.9,20.8z M44,68.1v-34l22.7,17L44,68.1z"/>
<path class="st0" d="M88.7,15.2C78.6,5.1,66.3,0,51.9,0C37.5,0,25.3,5.1,15.2,15.2C5.1,25.3,0,37.5,0,51.9C0,59.1,1.9,67.5,5.6,77
	c3.7,9.5,7.8,18.1,12.4,25.6c4.5,7.6,9.8,15.3,15.9,23.4c6,8,10.2,13.4,12.5,16c2.3,2.7,4.2,4.8,5.6,6.4l5.6-5.9
	c3.5-4.2,7.7-9.8,12.7-16.9c5-7.1,10-14.7,15.2-22.8c5.1-8.1,9.5-16.8,13.1-26.1c3.6-9.3,5.4-17.5,5.4-24.7
	C103.9,37.5,98.8,25.3,88.7,15.2z M78.6,77.8c-7.4,7.4-16.3,11.1-26.7,11.1c-10.4,0-19.3-3.7-26.7-11.1
	c-7.4-7.4-11.1-16.3-11.1-26.7c0-10.4,3.7-19.3,11.1-26.7c7.4-7.4,16.3-11.1,26.7-11.1c10.4,0,19.3,3.7,26.7,11.1
	c7.4,7.4,11.1,16.3,11.1,26.7C89.7,61.5,86,70.4,78.6,77.8z"/>
</svg>
