<?xml version="1.0" encoding="utf-8"?>
<!-- Generator: Adobe Illustrator 19.1.0, SVG Export Plug-In . SVG Version: 6.00 Build 0)  -->
<!DOCTYPE svg PUBLIC "-//W3C//DTD SVG 1.1//EN" "http://www.w3.org/Graphics/SVG/1.1/DTD/svg11.dtd">
<svg version="1.1" id="Layer_1" xmlns="http://www.w3.org/2000/svg" xmlns:xlink="http://www.w3.org/1999/xlink" x="0px" y="0px"
	 viewBox="-97 226.9 282.2 57.7" style="enable-background:new -97 226.9 282.2 57.7;" xml:space="preserve">
<style type="text/css">
	.st0{fill:#FFFFFF;}
</style>
<g>
	<path class="st0" d="M-94.1,245.6c0.1-0.6,0.6-1.1,1.1-1.1h5c0.5,0,1,0.5,0.9,1.1l-2.9,20.5c-0.1,0.6-0.6,1.1-1.1,1.1h-5
		c-0.5,0-0.9-0.5-0.9-1.1L-94.1,245.6z M-92.7,233.1c0-2.4,2.1-4.4,4.4-4.4c2,0,3.4,1.5,3.4,3.5c0,2.4-2.2,4.4-4.5,4.4
		C-91.3,236.5-92.7,234.9-92.7,233.1z"/>
	<path class="st0" d="M-79.7,250.5h-1.9c-0.6,0-0.9-0.5-0.9-1.1l0.6-3.8c0.1-0.6,0.5-1.1,1.1-1.1h1.9l0.9-6.2
		c1-6.9,5.2-11.4,11.9-11.4c3.3,0,6.4,1.7,7.6,2.6c0.4,0.3,0.5,1,0.1,1.5l-2.1,3.5c-0.5,0.8-0.9,0.9-1.5,0.5
		c-0.8-0.5-2.5-1.4-4.4-1.4c-2,0-3.9,1.4-4.4,4.9l-0.9,6h13.8c0.5,0,0.9,0.5,0.8,1.1l-2.9,20.5c-0.1,0.6-0.6,1.1-1.1,1.1h-5
		c-0.6,0-0.9-0.5-0.9-1.1l2.2-15.6h-7.8l-4.5,32.7c-0.1,0.9-0.6,1.1-1.4,1.1h-5c-0.5,0-0.9-0.5-0.8-1.1L-79.7,250.5z"/>
	<path class="st0" d="M-50,245.6c0.1-0.6,0.6-1.1,1.1-1.1h2.2c0.3,0,0.7,0.3,0.8,0.7l0.5,2.1c1.1-1,3.9-3.3,7.7-3.3
		c6.2,0,8.7,5.4,7.8,11.3l-1.5,10.9c-0.1,0.6-0.6,1.1-1.1,1.1h-4.9c-0.6,0-0.9-0.5-0.8-1.1l1.6-11.2c0.4-2.9-0.6-4.8-2.9-4.8
		c-2.9,0-4.9,3.2-4.9,3.2l-1.8,12.9c-0.1,0.8-0.4,1.1-1.2,1.1h-4.7c-0.5,0-0.9-0.5-0.8-1.1L-50,245.6z"/>
	<path class="st0" d="M-25.2,257.3c0-7.4,5.2-13.4,11.9-13.4c1.6,0,3.5,0.6,4.3,1.1l2.3-16.4c0.1-1,1.6-1.1,2.4-1.1h3.8
		c0.5,0,0.9,0.5,0.9,1.1l-5.3,37.5c-0.1,0.6-0.6,1.1-1.1,1.1h-2.2c-0.3,0-0.7-0.2-0.9-1l-0.3-1.7c-0.9,0.8-3.6,3.2-7.3,3.2
		C-21.6,267.8-25.2,263.1-25.2,257.3z M-15.1,261.6c2.4,0,4.2-2.6,4.6-3.7l0.6-6.5c0,0-1.1-1.4-3.5-1.4c-2.9,0-5.5,3.2-5.5,7.1
		C-18.8,259.7-17.4,261.6-15.1,261.6z"/>
	<path class="st0" d="M2.1,246c-0.2-0.7,0.1-1.5,0.9-1.5h4.9c0.3,0,0.7,0.3,0.8,0.6l2.9,13.4h0.1l6.6-13.4c0.2-0.5,0.7-0.6,1.1-0.6
		h5c0.8,0,1.1,0.7,0.6,1.5L4.2,283.5c-0.2,0.3-0.5,0.7-1,0.7H-2c-0.7,0-1-0.6-0.5-1.4l9.8-17.2L2.1,246z"/>
	<path class="st0" d="M38.1,244c5.2,0,9,4.8,9,10.3c0,7.3-5.7,13.5-12.4,13.5c-5.3,0-9-4.9-9-10.4C25.7,250.1,31.3,244,38.1,244z
		 M40.8,254.9c0-2.7-1.4-4.8-3.6-4.8c-2.8,0-5.3,3-5.3,6.6c0,2.7,1.4,4.9,3.6,4.9C38.3,261.6,40.8,258.6,40.8,254.9z"/>
	<path class="st0" d="M51.7,256.6l1.6-11c0.1-0.6,0.6-1.1,1.1-1.1h4.9c0.5,0,0.9,0.5,0.8,1.1l-1.6,11.2c-0.4,3,0.6,4.9,2.5,4.9
		c2.8,0,4.3-3.2,4.3-3.2l1.8-12.8c0.2-0.9,0.6-1.1,1.2-1.1H73c0.5,0,0.9,0.5,0.8,1.1L71,266.1c-0.1,0.6-0.6,1.1-1.1,1.1h-2.2
		c-0.5,0-0.7-0.4-0.9-0.9l-0.4-1.9c-1.2,1.3-3.3,3.3-7.4,3.3C52.8,267.8,50.9,262.4,51.7,256.6z"/>
	<path class="st0" d="M77.8,245.8c-0.2-0.7,0.2-1.3,1-1.3h4.5c0.5,0,0.7,0.3,0.9,0.6l2.6,10c0.1,0,0.1,0,0.2,0l5.3-10
		c0.3-0.6,0.7-0.6,1.4-0.6h4.7c0.7,0,1,0.7,0.6,1.4l-12.5,21.3c-0.2,0.3-0.5,0.6-1,0.6h-0.2c-0.5,0-0.7-0.3-0.8-0.6L77.8,245.8z"/>
	<path class="st0" d="M103,245.6c0.1-0.6,0.6-1.1,1.1-1.1h5c0.5,0,1,0.5,0.9,1.1l-2.9,20.5c-0.1,0.6-0.6,1.1-1.1,1.1h-5
		c-0.5,0-0.9-0.5-0.9-1.1L103,245.6z M104.5,233.1c0-2.4,2.1-4.4,4.4-4.4c2,0,3.4,1.5,3.4,3.5c0,2.4-2.2,4.4-4.5,4.4
		C105.8,236.5,104.5,234.9,104.5,233.1z"/>
	<path class="st0" d="M113.8,257.3c0-7.4,5.2-13.4,11.9-13.4c1.6,0,3.5,0.6,4.3,1.1l2.3-16.4c0.1-1,1.6-1.1,2.4-1.1h3.8
		c0.5,0,0.9,0.5,0.9,1.1l-5.3,37.5c-0.1,0.6-0.6,1.1-1.1,1.1h-2.2c-0.3,0-0.7-0.2-0.9-1l-0.3-1.7c-0.9,0.8-3.6,3.2-7.3,3.2
		C117.3,267.8,113.8,263.1,113.8,257.3z M123.9,261.6c2.4,0,4.2-2.6,4.6-3.7l0.6-6.5c0,0-1.1-1.4-3.5-1.4c-2.9,0-5.5,3.2-5.5,7.1
		C120.1,259.7,121.5,261.6,123.9,261.6z"/>
	<path class="st0" d="M153.9,244c4.5,0,7.3,2.6,7.3,6c0,5.8-8.4,7.7-14.2,7.8c-0.2,2.3,0.9,4.1,3.7,4.1c1.4,0,3.1-0.7,4-1.4
		c0.5-0.3,1-0.5,1.3,0l1.9,2.7c0.3,0.4,0.3,1-0.2,1.5c-2,1.8-4.8,3.1-8.1,3.1c-5.4,0-9-4.7-9-10.1C140.6,250.6,146,244,153.9,244z
		 M154.8,250.6c0-0.8-0.6-1.4-1.9-1.4c-2.3,0-4.4,2.2-5,4.1C150.5,253.3,154.8,252.5,154.8,250.6z"/>
	<path class="st0" d="M176.3,244c5.2,0,9,4.8,9,10.3c0,7.3-5.7,13.5-12.4,13.5c-5.3,0-9-4.9-9-10.4C163.9,250.1,169.5,244,176.3,244
		z M179,254.9c0-2.7-1.4-4.8-3.6-4.8c-2.8,0-5.3,3-5.3,6.6c0,2.7,1.4,4.9,3.6,4.9C176.5,261.6,179,258.6,179,254.9z"/>
</g>
</svg>
