<?xml version="1.0" encoding="utf-8"?>
<!-- Generator: Adobe Illustrator 19.1.1, SVG Export Plug-In . SVG Version: 6.00 Build 0)  -->
<svg version="1.1" id="Layer_1" xmlns="http://www.w3.org/2000/svg" xmlns:xlink="http://www.w3.org/1999/xlink" x="0px" y="0px"
	 viewBox="0 0 303.5 48.1" style="enable-background:new 0 0 303.5 48.1;" xml:space="preserve">
<style type="text/css">
	.st0{fill:#FFFFFF;}
</style>
<g>
	<path class="st0" d="M0.7,33.7c0-0.7,0.2-1.6,0.4-2.4l3.1-11.8H0l1-3.8h8.7L5.5,31.4c-0.3,0.9-0.4,1.7-0.4,2.3c0,1,0.5,1.5,1.3,1.5
		c1,0,1.9-0.8,3-3.6l2,0.7c-1.3,4.4-3.5,5.9-6.2,5.9C2.4,38.2,0.7,36.4,0.7,33.7z M5,9c0-1.6,1.3-3,3-3c1.6,0,3,1.3,3,3
		c0,1.6-1.4,3-3,3C6.4,12,5,10.7,5,9z"/>
	<path class="st0" d="M24.5,19.5l-4.2,18.3h-4.4l4.2-18.3h-3.9l1-3.8H21l1.4-5.9c0.6-2.6,1.7-4.7,3.1-6.4C27.3,1.3,29.8,0,32.9,0
		c3.5,0,5.5,1.8,5.5,3.9c0,1.7-1.2,2.9-2.8,2.9c-1.7,0-2.8-1.3-2.8-2.7V3.9c-0.2-0.1-0.4-0.1-0.5-0.1c-1.4,0-2.6,0.6-3.5,1.8
		c-1,1-1.7,2.7-2.3,5l-1.2,5.1h14.3l-4.1,15.6c-0.2,0.9-0.4,1.7-0.4,2.3c0,1,0.6,1.5,1.4,1.5c1,0,1.9-0.8,3-3.6l1.9,0.7
		c-1.3,4.4-3.5,5.9-6.2,5.9c-3,0-4.7-1.8-4.7-4.5c0-0.7,0.2-1.6,0.4-2.4l3.1-11.8H24.5z"/>
	<path class="st0" d="M60.3,33.8c0-0.7,0.2-1.7,0.4-2.5l1.9-6.7c0.3-0.9,0.4-1.5,0.4-2.3c0-1.9-1.3-3.2-3.3-3.2
		c-2.7,0-5.3,2.3-6.4,6.7l-3,12h-4.5l4.6-18.3h-4.1l1-3.8h7.9l-1.2,5.2c1.7-3.1,4.6-5.5,7.6-5.5c3.4,0,6,2.3,6,6.3
		c0,1.1-0.2,2.3-0.6,3.6l-1.9,6.5c-0.2,0.7-0.3,1.4-0.3,1.8c0,1,0.5,1.6,1.4,1.6c0.9,0,1.8-0.8,2.9-3.6l2,0.7c-1.2,4-3.3,5.9-6,5.9
		C62,38.2,60.3,36.4,60.3,33.8z"/>
	<path class="st0" d="M86.2,15.3c3.3,0,5.8,2.4,6.7,5.1l3.7-16.3h-4.1l0.9-3.8h8.5l-7.3,31.1c-0.2,1-0.4,1.7-0.4,2.3
		c0,1,0.4,1.5,1.3,1.5s1.8-0.8,2.9-3.6l2,0.7c-1.3,4.4-3.7,5.9-6.1,5.9c-2.7,0-4.3-1.8-4.3-4.5v-0.2c-1.8,2.7-4.5,4.8-7.8,4.8
		c-4.4,0-7.6-3.5-7.6-8.8C74.6,21.8,79.9,15.3,86.2,15.3z M91.9,24.8c0-3.3-1.8-5.5-5.1-5.5c-4.3,0-7.5,4.7-7.5,9.6
		c0,3.2,1.7,5.5,4.8,5.5C88.5,34.4,91.9,29.7,91.9,24.8z"/>
	<path class="st0" d="M97.9,44.9c0-1.6,1.2-2.9,2.8-2.9c1.3,0,2.4,0.9,2.7,2.2c1.2-0.1,3.4-1.8,7.9-7.2l-3.6-17.4h-3.9l1-3.8h6.8
		l3,17.6c3.5-4.6,6.6-8.9,7.4-12.1c-1.1-0.4-2.2-1.4-2.2-3c0-1.6,1.3-3,3-3c2.1,0,3.4,1.5,3.4,4c0,3-2,7.5-10.2,17.7
		c-7.8,9.6-10.9,11.1-14.3,11.1C99.5,48.1,97.9,46.6,97.9,44.9z"/>
	<path class="st0" d="M129.7,28.5c0-6.8,5.3-13.1,12.5-13.1c6.4,0,9.9,4.6,9.9,9.8c0,6.7-5.3,13.1-12.5,13.1
		C133.3,38.3,129.7,33.7,129.7,28.5z M147.6,25.1c0-3.8-2.5-6-5.6-6c-4.3,0-7.8,4.2-7.8,9.3c0,3.8,2.5,6.1,5.6,6.1
		C144.1,34.5,147.6,30.3,147.6,25.1z"/>
	<path class="st0" d="M166.1,15.7l-3.4,13.4c-0.2,0.7-0.3,1.5-0.3,2.2c0,1.9,1.2,3.1,3.1,3.1c2.9,0,5.4-2.4,6.5-6.7l3-12h4.5
		l-3.9,15.6c-0.2,0.9-0.4,1.7-0.4,2.3c0,1,0.5,1.5,1.3,1.5c0.9,0,1.8-0.8,2.9-3.6l2,0.7c-1.3,4.4-3.7,5.9-6.1,5.9
		c-2.6,0-4.3-1.8-4.3-4.6v-0.5c-1.8,3-4.5,5.1-7.5,5.1c-3.1,0-5.7-2.3-5.7-5.8c0-1.1,0.2-2.4,0.5-3.7l2.4-9.2h-4.1l1-3.8H166.1z"/>
	<path class="st0" d="M188.1,19.5h-3.8l1-3.8h6.8l2.6,17.6c3.9-4.3,6.8-8.6,7.7-12c-1.1-0.4-2.2-1.4-2.2-2.9c0-1.7,1.3-3.1,3.1-3.1
		c1.9,0,3.4,1.5,3.4,3.9c0,4.7-4.8,12.1-12,19.2h-2.9L188.1,19.5z"/>
	<path class="st0" d="M211.8,33.7c0-0.7,0.2-1.6,0.4-2.4l3.1-11.8h-4.2l1-3.8h8.7l-4.1,15.6c-0.3,0.9-0.4,1.7-0.4,2.3
		c0,1,0.5,1.5,1.3,1.5c1,0,1.9-0.8,3-3.6l2,0.7c-1.3,4.4-3.5,5.9-6.2,5.9C213.4,38.2,211.8,36.4,211.8,33.7z M216.1,9
		c0-1.6,1.3-3,3-3c1.6,0,3,1.3,3,3c0,1.6-1.4,3-3,3C217.4,12,216.1,10.7,216.1,9z"/>
	<path class="st0" d="M238.3,15.3c3.3,0,5.8,2.4,6.7,5.1l3.7-16.3h-4.1l0.9-3.8h8.5l-7.3,31.1c-0.2,1-0.4,1.7-0.4,2.3
		c0,1,0.4,1.5,1.3,1.5s1.8-0.8,2.9-3.6l2,0.7c-1.3,4.4-3.7,5.9-6.1,5.9c-2.7,0-4.3-1.8-4.3-4.5v-0.2c-1.8,2.7-4.5,4.8-7.8,4.8
		c-4.4,0-7.6-3.5-7.6-8.8C226.7,21.8,232,15.3,238.3,15.3z M244,24.8c0-3.3-1.8-5.5-5.1-5.5c-4.3,0-7.5,4.7-7.5,9.6
		c0,3.2,1.7,5.5,4.8,5.5C240.6,34.4,244,29.7,244,24.8z"/>
	<path class="st0" d="M260.2,28.2V29c0,3.3,2.7,5.5,6.7,5.5c2.4,0,4.5-0.5,7.3-2l-0.9,4.2c-2.3,1.1-4.2,1.5-7.3,1.5
		c-5.3,0-10.2-3.3-10.2-9.4c0-7.5,5.5-13.5,12.1-13.5c5.4,0,8.9,3.1,8.9,8.3c0,1.4-0.3,2.9-0.8,4.6H260.2z M260.8,25h11.5
		c0.2-0.6,0.3-1.3,0.3-1.9c0-2.3-1.5-4-4.7-4C264.7,19.1,262,21.5,260.8,25z"/>
	<path class="st0" d="M281.1,28.5c0-6.8,5.3-13.1,12.5-13.1c6.4,0,9.9,4.6,9.9,9.8c0,6.7-5.3,13.1-12.5,13.1
		C284.7,38.3,281.1,33.7,281.1,28.5z M299,25.1c0-3.8-2.5-6-5.6-6c-4.3,0-7.8,4.2-7.8,9.3c0,3.8,2.5,6.1,5.6,6.1
		C295.5,34.5,299,30.3,299,25.1z"/>
</g>
</svg>
