<?xml version="1.0" encoding="utf-8"?>
<!-- Generator: Adobe Illustrator 19.1.0, SVG Export Plug-In . SVG Version: 6.00 Build 0)  -->
<!DOCTYPE svg PUBLIC "-//W3C//DTD SVG 1.1//EN" "http://www.w3.org/Graphics/SVG/1.1/DTD/svg11.dtd">
<svg version="1.1" id="Layer_1" xmlns="http://www.w3.org/2000/svg" xmlns:xlink="http://www.w3.org/1999/xlink" x="0px" y="0px"
	 viewBox="-197 176.5 103.9 148.5" style="enable-background:new -197 176.5 103.9 148.5;" xml:space="preserve">
<style type="text/css">
	.st0{fill:#EF2E51;}
	.st1{fill:url(#SVGID_1_);}
</style>
<path class="st0" d="M-145.1,197.3c-8.3,0-15.4,3-21.4,9s-9,13.1-9,21.4s3,15.4,9,21.4s13.1,9,21.4,9c8.3,0,15.4-3,21.4-9
	s9-13.1,9-21.4s-3-15.4-9-21.4C-129.7,200.3-136.8,197.3-145.1,197.3z M-153,244.6v-34l22.7,17L-153,244.6z"/>
<linearGradient id="SVGID_1_" gradientUnits="userSpaceOnUse" x1="-145" y1="176.5" x2="-145" y2="324.9">
	<stop  offset="0.17" style="stop-color:#EF2E51"/>
	<stop  offset="0.3352" style="stop-color:#F03250"/>
	<stop  offset="0.4975" style="stop-color:#F13E4B"/>
	<stop  offset="0.6588" style="stop-color:#F45144"/>
	<stop  offset="0.8193" style="stop-color:#F96D39"/>
	<stop  offset="0.978" style="stop-color:#FE902C"/>
	<stop  offset="1" style="stop-color:#FF962A"/>
</linearGradient>
<path class="st1" d="M-108.3,191.7c-10.1-10.1-22.4-15.2-36.8-15.2c-14.4,0-26.6,5.1-36.7,15.2c-10.1,10.1-15.2,22.3-15.2,36.7
	c0,7.2,1.9,15.6,5.6,25.1c3.7,9.5,7.8,18.1,12.4,25.6c4.5,7.6,9.8,15.3,15.9,23.4c6,8,10.2,13.4,12.5,16c2.3,2.7,4.2,4.8,5.6,6.4
	l5.6-5.9c3.5-4.2,7.7-9.8,12.7-16.9c5-7.1,10-14.7,15.2-22.8c5.1-8.1,9.5-16.8,13.1-26.1c3.6-9.3,5.4-17.5,5.4-24.7
	C-93.1,214-98.2,201.8-108.3,191.7z M-118.4,254.3c-7.4,7.4-16.3,11.1-26.7,11.1c-10.4,0-19.3-3.7-26.7-11.1
	c-7.4-7.4-11.1-16.3-11.1-26.7s3.7-19.3,11.1-26.7c7.4-7.4,16.3-11.1,26.7-11.1s19.3,3.7,26.7,11.1c7.4,7.4,11.1,16.3,11.1,26.7
	C-107.3,238-111,246.9-118.4,254.3z"/>
</svg>
